<svg width="16" height="16" viewBox="0 0 16 16" fill="none" xmlns="http://www.w3.org/2000/svg">
<path d="M2.18208 0.000204601C1.99598 0.000204601 1.80968 0.0710928 1.66786 0.213278L0.213278 1.66786C-0.0710928 1.95223 -0.0710928 2.41265 0.213278 2.6963L5.5174 8.00042L0.213278 13.3045C-0.0710928 13.5889 -0.0710928 14.0493 0.213278 14.333L1.66786 15.7876C1.95223 16.0719 2.41265 16.0719 2.6963 15.7876L8.00042 10.4834L13.3045 15.7876C13.5882 16.0719 14.0493 16.0719 14.333 15.7876L15.7876 14.333C16.0719 14.0486 16.0719 13.5882 15.7876 13.3045L10.4834 8.00042L15.7876 2.6963C16.0719 2.41265 16.0719 1.95151 15.7876 1.66786L14.333 0.213278C14.0486 -0.0710928 13.5882 -0.0710928 13.3045 0.213278L8.00042 5.5174L2.6963 0.213278C2.55411 0.0710928 2.36818 0.000204601 2.18208 0.000204601Z" fill="#373C40"/>
</svg>
