<svg width="21" height="13" viewBox="0 0 21 13" fill="none" xmlns="http://www.w3.org/2000/svg">
<path d="M0.781638 0.334702C0.679516 0.333258 0.578125 0.352125 0.483359 0.390206C0.388592 0.428287 0.302338 0.484824 0.229611 0.556529C0.156884 0.628235 0.0991337 0.713681 0.0597162 0.807899C0.0202986 0.902118 0 1.00323 0 1.10536C0 1.2075 0.0202986 1.30861 0.0597162 1.40283C0.0991337 1.49705 0.156884 1.58249 0.229611 1.6542C0.302338 1.7259 0.388592 1.78244 0.483359 1.82052C0.578125 1.8586 0.679516 1.87747 0.781638 1.87603H19.2775C19.3796 1.87747 19.481 1.8586 19.5758 1.82052C19.6706 1.78244 19.7568 1.7259 19.8295 1.6542C19.9023 1.58249 19.96 1.49705 19.9994 1.40283C20.0389 1.30861 20.0592 1.2075 20.0592 1.10536C20.0592 1.00323 20.0389 0.902118 19.9994 0.807899C19.96 0.713681 19.9023 0.628235 19.8295 0.556529C19.7568 0.484824 19.6706 0.428287 19.5758 0.390206C19.481 0.352125 19.3796 0.333258 19.2775 0.334702H0.781638ZM0.781638 5.72933C0.679516 5.72789 0.578125 5.74676 0.483359 5.78484C0.388592 5.82292 0.302338 5.87946 0.229611 5.95116C0.156884 6.02287 0.0991337 6.10831 0.0597162 6.20253C0.0202986 6.29675 0 6.39786 0 6.5C0 6.60213 0.0202986 6.70324 0.0597162 6.79746C0.0991337 6.89168 0.156884 6.97712 0.229611 7.04883C0.302338 7.12054 0.388592 7.17707 0.483359 7.21515C0.578125 7.25324 0.679516 7.2721 0.781638 7.27066H19.2775C19.3796 7.2721 19.481 7.25324 19.5758 7.21515C19.6706 7.17707 19.7568 7.12054 19.8295 7.04883C19.9023 6.97712 19.96 6.89168 19.9994 6.79746C20.0389 6.70324 20.0592 6.60213 20.0592 6.5C20.0592 6.39786 20.0389 6.29675 19.9994 6.20253C19.96 6.10831 19.9023 6.02287 19.8295 5.95116C19.7568 5.87946 19.6706 5.82292 19.5758 5.78484C19.481 5.74676 19.3796 5.72789 19.2775 5.72933H0.781638ZM0.781638 11.124C0.679516 11.1225 0.578125 11.1414 0.483359 11.1795C0.388592 11.2176 0.302338 11.2741 0.229611 11.3458C0.156884 11.4175 0.0991337 11.5029 0.0597162 11.5972C0.0202986 11.6914 0 11.7925 0 11.8946C0 11.9968 0.0202986 12.0979 0.0597162 12.1921C0.0991337 12.2863 0.156884 12.3718 0.229611 12.4435C0.302338 12.5152 0.388592 12.5717 0.483359 12.6098C0.578125 12.6479 0.679516 12.6667 0.781638 12.6653H19.2775C19.3796 12.6667 19.481 12.6479 19.5758 12.6098C19.6706 12.5717 19.7568 12.5152 19.8295 12.4435C19.9023 12.3718 19.96 12.2863 19.9994 12.1921C20.0389 12.0979 20.0592 11.9968 20.0592 11.8946C20.0592 11.7925 20.0389 11.6914 19.9994 11.5972C19.96 11.5029 19.9023 11.4175 19.8295 11.3458C19.7568 11.2741 19.6706 11.2176 19.5758 11.1795C19.481 11.1414 19.3796 11.1225 19.2775 11.124H0.781638Z" fill="#373C40"/>
</svg>
