<svg width="27" height="22" viewBox="0 0 27 22" fill="none" xmlns="http://www.w3.org/2000/svg">
<path d="M25.8891 0.000531082C25.6088 0.00998721 25.3428 0.142621 25.1474 0.370334L8.64716 19.0514L1.85742 11.3642C1.758 11.247 1.63892 11.1534 1.50715 11.0889C1.37538 11.0244 1.23357 10.9904 1.09003 10.9887C0.946484 10.9871 0.804092 11.0178 0.671191 11.0793C0.53829 11.1407 0.417552 11.2315 0.316046 11.3465C0.214541 11.4614 0.134309 11.5981 0.0800501 11.7486C0.0257911 11.899 -0.00140457 12.0602 5.58476e-05 12.2227C0.00151627 12.3853 0.0316035 12.5458 0.0885553 12.695C0.145507 12.8442 0.228179 12.979 0.331728 13.0916L7.88432 21.6424C8.08666 21.8714 8.36106 22 8.64716 22C8.93326 22 9.20766 21.8714 9.41 21.6424L26.6731 2.09767C26.829 1.92609 26.9355 1.70519 26.9786 1.46391C27.0217 1.22263 26.9994 0.972232 26.9147 0.745531C26.8299 0.51883 26.6867 0.326401 26.5037 0.193461C26.3207 0.0605222 26.1065 -0.00672532 25.8891 0.000531082Z" fill="black"/>
</svg>
